<svg width="26" height="26" viewBox="0 0 26 26" fill="none" xmlns="http://www.w3.org/2000/svg">
<path d="M17.342 11.1278L11.908 7.9818C11.5787 7.79113 11.219 7.6958 10.829 7.6958C10.439 7.6958 10.075 7.79113 9.73702 7.9818C9.39902 8.17246 9.13469 8.4368 8.94402 8.7748C8.75335 9.1128 8.65802 9.48113 8.65802 9.8798V16.1198C8.65802 16.5011 8.75769 16.8608 8.95702 17.1988C9.15635 17.5368 9.42069 17.8011 9.75002 17.9918C10.0794 18.1825 10.439 18.2778 10.829 18.2778C11.219 18.2778 11.5787 18.1825 11.908 17.9918L17.342 14.8718C17.6714 14.6811 17.9357 14.4168 18.135 14.0788C18.3344 13.7408 18.434 13.3811 18.434 12.9998C18.434 12.6185 18.3344 12.2588 18.135 11.9208C17.9357 11.5828 17.6714 11.3185 17.342 11.1278ZM16.25 12.9998L10.842 16.1198V9.8798L16.25 12.9998ZM13 2.1578C11.0414 2.1578 9.22135 2.6518 7.54002 3.6398C5.89335 4.59313 4.59335 5.89313 3.64002 7.5398C2.65202 9.22113 2.15802 11.0411 2.15802 12.9998C2.15802 14.9585 2.65202 16.7785 3.64002 18.4598C4.59335 20.1065 5.89335 21.4065 7.54002 22.3598C9.22135 23.3478 11.0414 23.8418 13 23.8418C14.9587 23.8418 16.7787 23.3478 18.46 22.3598C20.1067 21.4065 21.4067 20.1065 22.36 18.4598C23.348 16.7785 23.842 14.9585 23.842 12.9998C23.842 11.0411 23.348 9.22113 22.36 7.5398C21.4067 5.89313 20.1067 4.59313 18.46 3.6398C16.7787 2.6518 14.9587 2.1578 13 2.1578ZM13 21.6578C11.44 21.6578 9.98402 21.2678 8.63202 20.4878C7.33202 19.7078 6.29202 18.6678 5.51202 17.3678C4.73202 16.0158 4.34202 14.5598 4.34202 12.9998C4.34202 11.4398 4.73202 9.9838 5.51202 8.6318C6.29202 7.3318 7.33202 6.2918 8.63202 5.5118C9.98402 4.7318 11.44 4.3418 13 4.3418C14.56 4.3418 16.016 4.7318 17.368 5.5118C18.668 6.2918 19.708 7.3318 20.488 8.6318C21.268 9.9838 21.658 11.4398 21.658 12.9998C21.658 14.5598 21.268 16.0158 20.488 17.3678C19.708 18.6678 18.668 19.7078 17.368 20.4878C16.016 21.2678 14.56 21.6578 13 21.6578Z" fill="white"/>
</svg>
